<svg xmlns="http://www.w3.org/2000/svg" xmlns:xlink="http://www.w3.org/1999/xlink" width="664" height="517" version="1.1" viewBox="0 0 664 517"><title>bg_lose</title><desc>Created with Sketch.</desc><defs><linearGradient id="linearGradient-1" x1="100%" x2="45.345%" y1="78.313%" y2="41.162%"><stop offset="0%" stop-color="#805CC5"/><stop offset="100%" stop-color="#2D1C5F"/></linearGradient><filter id="filter-2" width="105.8%" height="108.3%" x="-2.9%" y="-4.2%" filterUnits="objectBoundingBox"><feGaussianBlur in="SourceGraphic" stdDeviation="6"/></filter><linearGradient id="linearGradient-3" x1="50%" x2="50%" y1="0%" y2="118.972%"><stop offset="0%" stop-color="#422081"/><stop offset="100%" stop-color="#130A2A"/></linearGradient></defs><g id="screens" fill="none" fill-rule="evenodd" stroke="none" stroke-width="1"><g id="bg_lose"><rect id="bg" width="664" height="473" x="0" y="44" fill="url(#linearGradient-1)" rx="20"/><rect id="reflect" width="624" height="433" x="20" y="64" fill="#D74141" filter="url(#filter-2)" rx="16"/><rect id="area" width="616" height="425" x="24" y="68" fill="#000" rx="16"/><path id="Combined-Shape" fill="url(#linearGradient-3)" d="M18,44 L189.005036,38 L194,38 L194,14.9880245 C194,6.71036713 200.715729,0 209,0 L455,0 C463.284271,0 470,6.71036713 470,14.9880245 L470,38 L490.564188,38 L646,43.625 L646,44 L18,44 Z"/></g></g></svg>