<svg xmlns="http://www.w3.org/2000/svg" xmlns:xlink="http://www.w3.org/1999/xlink" width="664" height="517" version="1.1" viewBox="0 0 664 517"><title>screen</title><desc>Created with Sketch.</desc><defs><linearGradient id="linearGradient-1" x1="100%" x2="45.345%" y1="78.313%" y2="41.162%"><stop offset="0%" stop-color="#805CC5"/><stop offset="100%" stop-color="#2D1C5F"/></linearGradient><linearGradient id="linearGradient-2" x1="50%" x2="50%" y1="0%" y2="118.972%"><stop offset="0%" stop-color="#422081"/><stop offset="100%" stop-color="#130A2A"/></linearGradient></defs><g id="Page-1" fill="none" fill-rule="evenodd" stroke="none" stroke-width="1"><g id="03.-Battle-01" transform="translate(-180.000000, -378.000000)"><g id="screen1" transform="translate(38.000000, 378.000000)"><g id="screen" transform="translate(142.000000, 0.000000)"><rect id="bg" width="664" height="473" x="0" y="44" fill="url(#linearGradient-1)" rx="20"/><rect id="area" width="616" height="425" x="24" y="68" fill="#000" rx="16"/><rect id="real_screen" width="600" height="413" x="32" y="74" fill="#000"/><g id="name" fill="url(#linearGradient-2)" transform="translate(18.000000, 0.000000)"><path id="Combined-Shape" d="M0,44 L171.005036,38 L176,38 L176,14.9880245 C176,6.71036713 182.715729,0 191,0 L437,0 C445.284271,0 452,6.71036713 452,14.9880245 L452,38 L472.564188,38 L628,43.625 L628,44 L0,44 Z"/></g></g></g></g></g></svg>