<svg xmlns="http://www.w3.org/2000/svg" xmlns:xlink="http://www.w3.org/1999/xlink" width="133" height="474" version="1.1" viewBox="0 0 133 474"><title>controls_right</title><desc>Created with Sketch.</desc><defs><rect id="path-1" width="31" height="17" x="0" y="29" rx="3"/><filter id="filter-2" width="106.5%" height="123.5%" x="-3.2%" y="-5.9%" filterUnits="objectBoundingBox"><feOffset dx="0" dy="2" in="SourceAlpha" result="shadowOffsetOuter1"/><feColorMatrix in="shadowOffsetOuter1" type="matrix" values="0 0 0 0 0 0 0 0 0 0 0 0 0 0 0 0 0 0 0.5 0"/></filter><rect id="path-3" width="31" height="17" x="0" y="117" rx="3"/><filter id="filter-4" width="106.5%" height="123.5%" x="-3.2%" y="-5.9%" filterUnits="objectBoundingBox"><feOffset dx="0" dy="2" in="SourceAlpha" result="shadowOffsetOuter1"/><feColorMatrix in="shadowOffsetOuter1" type="matrix" values="0 0 0 0 0 0 0 0 0 0 0 0 0 0 0 0 0 0 0.5 0"/></filter><rect id="path-5" width="31" height="17" x="0" y="68" rx="3"/><filter id="filter-6" width="106.5%" height="123.5%" x="-3.2%" y="-5.9%" filterUnits="objectBoundingBox"><feOffset dx="0" dy="2" in="SourceAlpha" result="shadowOffsetOuter1"/><feColorMatrix in="shadowOffsetOuter1" type="matrix" values="0 0 0 0 0 0 0 0 0 0 0 0 0 0 0 0 0 0 0.5 0"/></filter><filter id="filter-7" width="178.3%" height="178.3%" x="-39.1%" y="-39.1%" filterUnits="objectBoundingBox"><feGaussianBlur in="SourceGraphic" stdDeviation="6"/></filter></defs><g id="Page-1" fill="none" fill-rule="evenodd" stroke="none" stroke-width="1"><g id="03.-Battle-01" transform="translate(-24.000000, -422.000000)"><g id="screen1" transform="translate(38.000000, 378.000000)"><g id="controls_right" transform="translate(0.000000, 44.000000)"><g id="slider" transform="translate(7.000000, 0.000000)"><rect id="Rectangle" width="5" height="188" x="13" y="0" fill="#000" rx="2.5"/><g id="Rectangle" class="move-control-down"><use fill="#000" fill-opacity="1" filter="url(#filter-4)" xlink:href="#path-1"/><use fill="#D9007D" fill-rule="evenodd" xlink:href="#path-1"/></g></g><g id="slider" transform="translate(46.000000, 0.000000)"><rect id="Rectangle" width="5" height="188" x="13" y="0" fill="#000" rx="2.5"/><g id="Rectangle"><use fill="#000" fill-opacity="1" filter="url(#filter-4)" xlink:href="#path-3"/><use fill="#D9007D" fill-rule="evenodd" xlink:href="#path-3"/></g></g><g id="slider" transform="translate(85.000000, 0.000000)"><rect id="Rectangle" width="5" height="188" x="13" y="0" fill="#000" rx="2.5"/><g id="Rectangle" class="move-control-up"><use fill="#000" fill-opacity="1" filter="url(#filter-6)" xlink:href="#path-5"/><use fill="#D9007D" fill-rule="evenodd" xlink:href="#path-5"/></g></g><g id="button-on" transform="translate(0.000000, 414.000000)"><circle id="Oval" cx="23" cy="23" r="16" fill="#130532"/><circle id="Oval" cx="23" cy="23" r="12" fill="#C12980" class="button-illuminated-1"/><circle id="Oval" cx="23" cy="23" r="23" fill="#C02980" filter="url(#filter-7)" opacity=".527"/></g><g id="button-off" transform="translate(47.000000, 421.000000)"><circle id="Oval" cx="16" cy="16" r="16" fill="#130532"/><circle id="Oval" cx="16" cy="16" r="12" fill="#831253"/></g><g id="button-off-copy" transform="translate(87.000000, 421.000000)"><circle id="Oval" cx="16" cy="16" r="16" fill="#130532"/><circle id="Oval" cx="16" cy="16" r="12" fill="#831253"/></g><g id="button-panel" transform="translate(7.000000, 213.000000)"><rect id="Rectangle" width="109" height="184" x="0" y="0" fill="#130532" rx="11"/><rect id="Rectangle" width="26" height="20" x="8" y="12" fill="#7A56C9" class="button-fill-1" rx="4"/><rect id="Rectangle-Copy-3" width="26" height="20" x="8" y="40" fill="#7A56C9" class="button-fill-3" opacity=".403" rx="4"/><rect id="Rectangle-Copy-6" width="26" height="20" x="8" y="68" fill="#7A56C9" rx="4"/><rect id="Rectangle-Copy-15" width="26" height="20" x="8" y="152" fill="#7A56C9" class="button-fill-2" rx="4"/><rect id="Rectangle-Copy-12" width="26" height="20" x="8" y="124" fill="#7A56C9" class="button-fill-1" opacity=".368" rx="4"/><rect id="Rectangle-Copy-9" width="26" height="20" x="8" y="96" fill="#7A56C9" class="button-fill-3" rx="4"/><rect id="Rectangle-Copy" width="26" height="20" x="42" y="12" fill="#7A56C9" class="button-fill-1" opacity=".402" rx="4"/><rect id="Rectangle-Copy-4" width="26" height="20" x="42" y="40" fill="#7A56C9" class="button-fill-1" rx="4"/><rect id="Rectangle-Copy-7" width="26" height="20" x="42" y="68" fill="#7A56C9" class="button-fill-2" rx="4"/><rect id="Rectangle-Copy-16" width="26" height="20" x="42" y="152" fill="#7A56C9" class="button-fill-3" rx="4"/><rect id="Rectangle-Copy-13" width="26" height="20" x="42" y="124" fill="#7A56C9" rx="4"/><rect id="Rectangle-Copy-10" width="26" height="20" x="42" y="96" fill="#7A56C9" class="button-fill-1" opacity=".402" rx="4"/><rect id="Rectangle-Copy-2" width="26" height="20" x="75" y="12" fill="#7A56C9" class="button-fill" rx="4"/><rect id="Rectangle-Copy-5" width="26" height="20" x="75" y="40" fill="#7A56C9" class="button-fill-1" rx="4"/><rect id="Rectangle-Copy-8" width="26" height="20" x="75" y="68" fill="#7A56C9" opacity=".397" rx="4"/><rect id="Rectangle-Copy-17" width="26" height="20" x="75" y="152" fill="#7A56C9" class="button-fill-2" opacity=".397" rx="4"/><rect id="Rectangle-Copy-14" width="26" height="20" x="75" y="124" fill="#7A56C9" class="button-fill-1" opacity=".397" rx="4"/><rect id="Rectangle-Copy-11" width="26" height="20" x="75" y="96" fill="#7A56C9" class="button-fill-3" rx="4"/></g></g></g></g></g></svg>